<?xml version="1.0" encoding="utf-8"?>
<!-- Generator: Adobe Illustrator 24.2.1, SVG Export Plug-In . SVG Version: 6.00 Build 0)  -->
<svg version="1.1" id="Capa_1" xmlns="http://www.w3.org/2000/svg" xmlns:xlink="http://www.w3.org/1999/xlink" x="0px" y="0px"
	 viewBox="0 0 340 367" style="enable-background:new 0 0 340 367;" xml:space="preserve">
<style type="text/css">
	.st0{fill:#E5E5E5;}
	.st1{fill:#1FCAFF;}
	.st2{fill:#FFFFFF;}
	.st3{opacity:0.48;fill:#BFBFBF;}
	.st4{fill:#2D1C2C;}
	.st5{opacity:0.48;fill:#225B99;}
</style>
<path class="st0" d="M166.96,268.26c1.75-1.66,4.04-2.9,6.86-3.74c0,0-0.01,0-0.01,0l-0.75-60.32c0,0,0,0,0,0
	c-11.39-8.84-21.25-31.02-22.54-37.76c-0.39-2.06,0.73-4.12,2.67-4.9c1.95-0.79,4.2-0.08,5.35,1.69c2.34,3.6,6.51,5.43,10.64,6.33
	c-2.08-2.95-3.71-6.91-4.11-12.22c-0.14-1.86,0.85-3.61,2.52-4.44c1.58-0.79,3.45-0.6,4.83,0.47l-0.12-9.9
	c-0.01-0.01-0.02-0.02-0.03-0.03c-0.08-0.09-0.15-0.18-0.22-0.27c-0.15-0.19-0.29-0.39-0.41-0.6c-0.03-0.06-0.06-0.13-0.1-0.19
	c-0.13-0.26-0.25-0.54-0.34-0.84l-11.56-41.49l-9.72,37.61c-0.53,2.06-2.36,3.53-4.49,3.6l-7.5,0.25c-2.36,0.08-4.65,0.95-6.46,2.46
	l-18.17,15.12c-2.81,2.34-4.88,4.65-6.35,7.07c-0.29,0.48-0.6,0.94-0.93,1.4c-0.08,0.12-0.17,0.23-0.26,0.35
	c-0.31,0.42-0.63,0.83-0.97,1.22c-0.03,0.03-0.06,0.07-0.09,0.1c-0.37,0.43-0.75,0.84-1.15,1.24c-0.1,0.11-0.21,0.21-0.31,0.31
	c-0.36,0.35-0.73,0.7-1.11,1.04c-0.06,0.05-0.11,0.11-0.17,0.16c-0.43,0.38-0.88,0.74-1.34,1.1c-0.12,0.09-0.24,0.18-0.36,0.28
	c-0.4,0.3-0.8,0.59-1.21,0.88c-0.09,0.06-0.18,0.13-0.27,0.19c-0.49,0.33-0.99,0.65-1.5,0.96c-0.14,0.08-0.28,0.17-0.42,0.25
	c-0.42,0.25-0.85,0.5-1.28,0.74c-0.13,0.07-0.25,0.14-0.37,0.21c-0.53,0.28-1.06,0.56-1.61,0.83c-0.16,0.08-0.32,0.15-0.48,0.23
	c-0.43,0.21-0.87,0.41-1.31,0.61c-0.16,0.07-0.33,0.15-0.49,0.22c-0.55,0.24-1.11,0.47-1.68,0.7c-0.18,0.07-0.37,0.14-0.56,0.22
	c-0.43,0.17-0.86,0.33-1.29,0.49c-0.21,0.08-0.42,0.15-0.63,0.23c-0.56,0.2-1.13,0.39-1.69,0.58c-0.22,0.07-0.45,0.14-0.67,0.21
	c-0.4,0.13-0.79,0.25-1.19,0.37c-0.26,0.08-0.52,0.16-0.78,0.23c-0.54,0.16-1.08,0.31-1.63,0.46c-0.29,0.08-0.57,0.15-0.86,0.23
	c-0.35,0.09-0.69,0.18-1.04,0.27c-0.32,0.08-0.63,0.16-0.95,0.23c-0.35,0.08-0.7,0.16-1.05,0.24c-0.52,0.12-1.05,0.23-1.57,0.35
	c-0.27,0.06-0.53,0.11-0.8,0.17c-0.37,0.08-0.75,0.15-1.12,0.22c-0.21,0.04-0.41,0.08-0.62,0.12c-0.73,0.14-1.46,0.27-2.19,0.39
	c-0.15,0.02-0.29,0.05-0.44,0.07c-0.44,0.07-0.87,0.14-1.3,0.21c-0.09,0.01-0.17,0.03-0.26,0.04c-0.92,0.14-1.84,0.28-2.75,0.4
	c-0.36,1.81-1.57,6.49-1.33,7.42c0.47,1.87-4.11-1.63-5.84-1.13c-0.6,0.18-0.96,0.59-0.84,1.38c0.24,1.56,2.51,4.59,1.18,5.26
	l-4.81,2.41c-0.59,0.3-1.22,0.38-1.83,0.29c0,0,0,0,0,0c0.51,1.04,1.02,2.05,1.54,3.03c0.01,0.02,0.02,0.04,0.03,0.05
	c1.05,1.96,2.12,3.79,3.2,5.49c0.01,0.01,0.02,0.03,0.03,0.04c0.51,0.81,1.03,1.58,1.54,2.33c0.04,0.06,0.08,0.12,0.12,0.18
	c1.03,1.5,2.06,2.88,3.06,4.14c0.1,0.12,0.2,0.24,0.29,0.37c0.39,0.48,0.77,0.95,1.15,1.39c0.12,0.14,0.24,0.28,0.36,0.42
	c0.46,0.53,0.91,1.05,1.35,1.54c5.38,5.93,10.2,9.24,12.21,10.5l38.61-1.28c2.16-0.06,4.16,1.36,4.77,3.47l9.83,34.06l0,0l0,0
	c4.69-2.57,9.93-4.05,15.4-4.17C153.92,261.92,161.03,264.12,166.96,268.26z"/>
<path class="st1" d="M225.98,219.37c0.29,5.51,4.37,16.45,10.69,29.18l5.3-29C235.35,220.33,229.72,219.91,225.98,219.37z"/>
<line class="st2" x1="247.94" y1="213.59" x2="238.92" y2="262.94"/>
<path class="st3" d="M106.31,166c0,0,12.81,4.8,16.01,3.2c3.2-1.6,4.8-1.6,4.8-1.6l12.81-16.01c0,0,9.6,1.6,14.41-4.8
	c0,0,16.01,52.83,14.41,68.83s-3.2,65.63-3.2,65.63l14.41-2.37l-3-148.28L161.1,88.63l-25.97,50.15L106.31,166z"/>
<g>
	<path class="st4" d="M86.81,239.3l6.57,27.05c0,0,0,0,0,0c-3.3-0.37-6.76-0.53-10.37-0.45c-2.78,0.06-5.11,0.22-7.2,0.49
		c-5.97,0.68-9.96,3.24-11.84,7.52c-3.51-6.75-8.44-9.27-17.61-9.37c-0.39,0-0.77,0-1.14,0.01c-9.11,0.19-13.89,3.99-16.48,13.1
		l-12.65,43.9c-0.7,2.34-2.33,7.83,0.7,12.7c3.03,4.88,8.69,5.85,11.11,6.26l2.31,0.33c1.94,0.33,3.51,0.47,4.95,0.44
		c9.13-0.19,11.92-7.09,12.93-11.13l2.46-0.23c1.43,3.66,4.77,9.53,13.04,9.36c2.16-0.04,4.59-0.51,7.87-1.52
		c1.69,0.94,3.76,1.46,6.17,1.55c1.35,0.06,2.61,0.11,3.96,0.08c16.6-0.34,30.18-4.87,39.09-12.77c6.76,7.93,16.46,12.52,27.02,12.3
		c7.08-0.15,13.84-2.55,19.53-6.68c2.58,3.93,7.09,5.74,13.7,5.61c4.07-0.08,8.68-0.65,12.04-4.24c3.33-3.55,3.6-8.05,3.41-12.05
		l-0.1-1.8c6.76-1.44,12.44-4.13,16.84-7.84l0.1,8.53c0.06,7.57,2.54,12.29,7.88,14.63l-1.75,8.84c-0.51,2.47-1.7,8.26,1.8,12.94
		c3.11,4.16,8,5.07,11.93,5.41l2.47,0.14c1.27,0.1,2.37,0.14,3.37,0.12c11.06-0.23,13.38-8.48,14.05-12.93l3.25-0.58
		c1.64,3.47,5.15,8.99,12.88,8.83c2.43-0.05,5.06-0.68,8.66-2.07c1.8,0.75,4.01,1.2,6.73,1.14c0.87-0.02,1.82-0.08,2.85-0.19
		l0.88-0.09c3.86-0.41,8.68-1.4,11.77-5.43c0.55-0.72,1-1.47,1.35-2.24c2.33,2.26,5.64,4.12,10.41,4.02
		c1.81-0.04,3.74-0.34,6.24-0.99l0.98-0.29c2.48-0.63,8.57-2.3,10.67-8.11c2.15-5.93-1.66-11.18-3.08-13.14l-5.89-8.17
		c5.75-5.94,8.62-13.45,7.82-20.94c-1.32-12.36-12.83-24.61-35.59-24.14c-1.81,0.04-3.69,0.16-5.59,0.36c-2.75,0.29-6.05,0.9-9,1.47
		c-7.44,1.51-11.85,5.32-13.17,11.36c-1.75-2.99-3.82-5.4-6.71-6.98c0.52-1.91,0.75-4.11,0.7-6.61
		c-0.27-12.78-8.03-15.3-14.49-15.17c-0.19,0-0.4,0.01-0.61,0.02l8.08-44.23c11.31-3.39,25.01-11.16,36.34-28.41l4.55-6.31
		c0.81-1.13,1.1-2.56,0.78-3.91c-0.32-1.36-1.21-2.5-2.44-3.15l-5.76-3.02c-0.11-2.37-0.38-5.97-1.08-10.26l41.06-3.7
		c1.84-0.17,3.42-1.33,4.06-2.99c0.64-1.67,0.22-3.53-1.07-4.8L184.18,8.76c-2.93-2.88-7.01-4.5-11.2-4.44
		c-4.16,0.11-8.22,1.8-11.06,4.76L17.57,159.97c-1.34,1.4-1.64,3.43-0.78,5.14c0.87,1.7,2.74,2.72,4.7,2.57l47.03-3.64l2.51,10.32
		c-11.47,2.09-23.39,2.55-29.84,2.39c-1.47-0.04-2.9,0.62-3.84,1.77c-0.94,1.15-1.29,2.68-0.95,4.12
		c9.72,41.4,36.72,55.85,37.86,56.45c0.73,0.38,1.57,0.57,2.37,0.54 M236.67,248.55c-6.33-12.74-10.4-23.67-10.69-29.18
		c3.74,0.55,9.37,0.97,15.99,0.18L236.67,248.55z M32.92,157.55L169,15.3c1.07-1.12,2.51-1.69,4.13-1.78
		c1.59-0.02,3.07,0.56,4.18,1.66L314.68,150.4l-32.11,2.9c0,0,0,0,0,0c-4.74-17.52-16.71-39.35-46.93-41.99
		c0.14-0.71,0.12-1.46-0.14-2.19l-8.58-24.34c-0.58-1.66-2.15-2.75-3.89-2.71c-0.02,0-0.05,0-0.07,0c-1.76,0.07-3.28,1.29-3.74,3.01
		l-7.46,27.81c-0.9,0.18-1.81,0.34-2.72,0.54l-14.86-28.72c-0.77-1.49-2.27-2.47-3.94-2.58c-1.68-0.11-3.29,0.66-4.25,2.03
		c-6.85,9.75-10.32,21.86-12.07,31.26l-9.8-35.19c-0.58-2.09-2.5-3.53-4.67-3.51c-2.16-0.03-4.06,1.5-4.6,3.6l-13.3,51.45
		l-1.86,0.06l-9.56-25.93c-0.52-1.42-1.8-2.42-3.3-2.59c-1.5-0.17-2.97,0.52-3.8,1.79c-0.36,0.55-8.76,13.69-10.44,41.78
		c-0.01,0.11,0.01,0.21,0.01,0.32l-5.41,4.5c-3.64,3.03-6.4,6.13-8.42,9.48c-3.1,5.13-10.12,8.65-18.38,11.02l-3.43-14.13
		c-0.54-2.22-2.7-3.73-5.06-3.54L32.92,157.55z M119.4,276.23c-4.3-3.47-9.59-6.12-15.67-7.88l-7.14-29.38l16.3-0.54l9.82,34.01
		C121.54,273.62,120.43,274.88,119.4,276.23z M166.96,268.26c-5.93-4.15-13.04-6.35-20.64-6.19c-5.47,0.11-10.71,1.6-15.4,4.17
		c0,0,0,0,0,0l-9.83-34.06c-0.61-2.11-2.61-3.53-4.77-3.47l-38.61,1.28c-2.02-1.26-6.83-4.57-12.21-10.5
		c-3.89-4.29-8.57-10.53-12.67-18.98c0.6,0.09,1.23,0.01,1.83-0.29l4.81-2.41c1.33-0.66-0.94-3.69-1.18-5.26
		c-0.12-0.79,0.23-1.2,0.84-1.38c1.73-0.51,6.31,3,5.84,1.13c-0.23-0.93,0.97-5.61,1.33-7.42c15.54-2.1,33.65-7.07,40.7-18.73
		c1.46-2.42,3.54-4.73,6.35-7.07l18.17-15.12c1.81-1.51,4.11-2.38,6.46-2.46l7.5-0.25c2.13-0.07,3.96-1.54,4.49-3.6l9.72-37.61
		l11.56,41.49c0.21,0.75,0.6,1.39,1.09,1.93l0.12,9.9c-1.39-1.06-3.25-1.26-4.83-0.47c-1.67,0.84-2.66,2.58-2.52,4.44
		c0.4,5.31,2.03,9.27,4.11,12.22c-4.13-0.9-8.3-2.73-10.64-6.33c-1.15-1.76-3.4-2.48-5.35-1.69c-1.94,0.78-3.06,2.84-2.67,4.9
		c1.29,6.74,11.15,28.92,22.54,37.76c0,0,0,0,0,0l0.75,60.32c0,0,0.01,0,0.01,0C171,265.37,168.71,266.6,166.96,268.26z
		 M128.65,267.6c0.05-0.03,0.1-0.06,0.15-0.1C128.75,267.54,128.7,267.57,128.65,267.6z M213.1,264.2
		c-1.35,0.12-3.78,0.33-6.22,1.33c-5.18-2.04-11.35-3.03-18.17-2.89c-1.87,0.04-3.63,0.13-5.3,0.27l-0.74-59.2l0.91-4.25
		c-2.48-0.08-9.21-3.42-15.65-13.85c-2.02-3.26-3.8-6.59-5.26-9.63c5.93,2.27,12.41,2.53,16.82,2.38c2.21-0.09,4.04-1.66,4.45-3.83
		c0.41-2.17-0.72-4.3-2.75-5.19c-1.95-0.86-4.16-2.34-5.79-4.93c1.6,0.54,3.34,1.09,5.03,0.71c4.03-0.9,0.29-8.19,2.23-10.47
		l-0.58,0.81l-0.31-24.79c0.05-1.37,0.88-18.97,7.92-33.75l12.24,23.65c0.46,0.9,1.2,1.62,2.1,2.08c0.46,0.23,0.73,0.38,0.76,0.4
		c1.06,0.58,2.29,0.74,3.46,0.45c2.2-0.54,4.42-1.02,6.59-1.42l17.78-1.35c44.27,2.21,43.51,52.57,43.45,54.71
		c-0.05,1.83,0.95,3.53,2.57,4.38l3.36,1.77l-1.38,1.91c-0.04,0.06-0.08,0.12-0.12,0.18c-22.73,34.71-55.36,25.87-56.73,25.48
		c-2.06-0.6-4.27,0.23-5.41,2.04c-5.35,8.46,1.88,25.65,8.78,39.67c2.03,4.13,4.12,8.09,6.07,11.66L213.1,264.2z"/>
	<path class="st4" d="M246.07,209.17c0.46-0.11,0.93-0.22,1.4-0.34C246.99,208.88,246.51,208.98,246.07,209.17z"/>
</g>
<path class="st2" d="M43.88,182.01c0,0,8.6,1,10.71,2.1c2.1,1.1-5.9-0.5-5.9,2.7s-3.2,3.62-4.8,2.61S42.28,183.61,43.88,182.01z"/>
<path class="st2" d="M284,175.6c0,0,8,3.2,4.8,6.4l-1.6,1.6C287.2,183.61,287.2,177.2,284,175.6z"/>
<g>
	<path class="st2" d="M242.99,269.93l-29.39,2.43c-3.5,0.31-5.27,1-5.94,2.83c-4.71-3.04-11.35-4.52-19.01-4.36
		c-3.79,0.08-7.5,0.38-11.05,1.14c-5.51,1.1-7.22,3.26-6.94,8.95l0.19,4.16c-4.82-9.05-13.79-15.03-24.58-14.81
		c-12.19,0.25-21.9,9.01-25.49,20.57c-5.34-10.47-18.3-17.16-37.82-16.75c-2.2,0.05-4.32,0.16-6.44,0.44
		c-4.84,0.55-6.1,2.1-5.77,7.02l2.73,38.87l-15.99-40.49c-2.32-5.79-4.17-7.12-11.38-7.2c-6.22-0.02-8.02,1.23-9.71,7.18
		l-12.67,43.97c-1.7,5.73-0.6,7.52,5.34,8.54l2.29,0.33c6.01,1.01,7.73-0.16,8.9-6.18l0.53-2.58c0.18-0.87,0.9-1.52,1.79-1.6
		l11.9-1.09c0.94-0.09,1.81,0.49,2.1,1.39l0.89,2.76c1.86,5.81,3.79,6.83,11.63,4.39c2.48-0.77,4.06-1.57,4.88-2.69l0.03,0.46
		c0.21,2.65,0.9,3.39,3.64,3.49c1.22,0.05,2.36,0.11,3.57,0.08c22.3-0.46,35.32-8.84,40.17-19.03
		c4.11,10.95,13.97,18.81,25.94,18.56c11.27-0.23,20.57-7.68,24.84-17.72l0.43,9.23c0.28,6.14,1.83,7.55,7.96,7.42
		c6.3-0.13,7.71-1.6,7.43-7.66l-0.39-7.37c-0.06-1.06,0.73-2,1.79-2.11c17.3-1.74,25.95-11.21,25.68-24.32
		c-0.01-0.52-0.05-1.02-0.1-1.51c0.16-0.01,0.31-0.01,0.47-0.01l3.3-0.16c1.14-0.06,2.1,0.85,2.11,1.99l0.38,31.9
		c0.05,6.15,1.53,7.71,7.68,8.19l0.76,0.06c6.08,0.48,7.65-0.92,7.9-6.99l1.23-34.56c0.04-1.03,0.84-1.86,1.87-1.94l2.74-0.19
		c6.06-0.35,7.47-1.9,7.34-7.97C250.6,270.84,248.98,269.43,242.99,269.93z M50.14,310.75l-4.46,0.37c-1.35,0.11-2.42-1.1-2.14-2.43
		l1.81-8.52c0.43-2.01,3.25-2.16,3.88-0.2l2.65,8.15C52.29,309.35,51.44,310.64,50.14,310.75z M91.98,313.06c-0.21,0-0.43,0-0.65,0
		c-1.11-0.02-2.01-0.91-2.01-2.02l-0.01-18.33c0-1.15,0.96-2.07,2.11-2.02c9.85,0.46,15.97,4.67,16.11,11.27
		C107.68,309.17,101.46,312.86,91.98,313.06z M147.36,314.87c-7.81,0.16-11.49-5.45-11.64-12.66c-0.15-7.05,4.5-13.37,11.33-13.51
		c6.37-0.13,10.59,5.77,10.74,12.83C157.93,308.5,154.18,314.73,147.36,314.87z M188.81,300.2c-0.01,0-0.01,0-0.02,0
		c-1.09,0.02-1.99-0.83-2.04-1.92l-0.49-10.12c-0.05-0.95,0.57-1.82,1.5-2.05c1.37-0.34,2.86-0.52,4.32-0.55
		c6.45-0.13,9.47,2.69,9.53,5.87C201.7,295.45,197.08,300.02,188.81,300.2z"/>
</g>
<g>
	<path class="st1" d="M319.7,335.25l-9.2-12.77c-0.65-0.9-0.44-2.16,0.47-2.81c6.83-4.88,9.81-11.4,9.16-17.46
		c-1.06-9.97-12.06-18.63-32.16-16.49c-2.39,0.25-5.39,0.81-8.24,1.35c-5.93,1.2-7.54,3.46-6.9,9.45l3.63,35.26l-17.67-35.55
		c-2.97-5.89-5.04-7.12-12.64-6.55c-6.55,0.53-8.33,2.01-9.59,8.43l-9.38,47.46c-1.27,6.19,0.04,7.98,6.39,8.52l2.43,0.14
		c6.43,0.52,8.14-0.87,8.82-7.31l0.33-2.85c0.1-0.88,0.77-1.59,1.65-1.75l12.61-2.25c0.93-0.17,1.85,0.33,2.21,1.2l1.22,2.91
		c2.49,5.95,4.6,6.85,12.64,3.57c1.28-0.52,2.3-1.03,3.12-1.57c1.19,2.31,3.39,2.82,7.68,2.36l0.87-0.09
		c6.38-0.68,7.73-2.45,6.73-8.79l-1.82-11.25c-0.17-1.04,0.49-2.03,1.51-2.28l1.42-0.35c0.88-0.21,1.8,0.19,2.24,0.98l6.83,12.29
		c3.19,5.71,5.31,6.62,11.66,4.97l0.86-0.26C322.54,342.29,323.28,340.2,319.7,335.25z M253.94,329.34l-4.96,0.85
		c-1.33,0.23-2.5-0.89-2.34-2.23l1.22-9.72c0.26-2.04,3.05-2.43,3.85-0.53l3.74,8.88C255.96,327.77,255.22,329.13,253.94,329.34z
		 M292.16,315.25c-1.11,0.23-2.2-0.54-2.38-1.66L288,302.53c-0.18-1.14,0.62-2.19,1.77-2.32c0.21-0.02,0.42-0.05,0.62-0.07
		c6.94-0.74,10.74,2.41,11.12,6C301.9,309.77,298.85,313.84,292.16,315.25z"/>
</g>
<path class="st0" d="M125.34,136.58c1.86-1.55,3.99-2.73,6.25-3.52l-5.59-15.16c-1.75,5.03-3.7,12.37-4.81,22.14L125.34,136.58z"/>
<polygon class="st0" points="223.64,99.8 220.36,112.02 227.75,111.46 "/>
<path class="st1" d="M32.92,157.55l38.95-3.02c2.36-0.18,4.52,1.32,5.06,3.54l3.43,14.13c8.26-2.37,15.28-5.89,18.38-11.02
	c2.03-3.35,4.78-6.45,8.42-9.48l5.41-4.5c0-0.11-0.02-0.21-0.01-0.32c1.68-28.09,10.08-41.23,10.44-41.78
	c0.83-1.27,2.3-1.96,3.8-1.79c1.5,0.17,2.78,1.17,3.3,2.59l9.56,25.93l1.86-0.06l13.3-51.45c0.54-2.1,2.44-3.63,4.6-3.6
	c2.17-0.02,4.09,1.42,4.67,3.51l9.8,35.19c1.75-9.4,5.22-21.51,12.07-31.26c0.97-1.37,2.58-2.14,4.25-2.03
	c1.67,0.11,3.17,1.09,3.94,2.58l14.86,28.72c0.91-0.2,1.81-0.37,2.72-0.54l7.46-27.81c0.46-1.72,1.98-2.94,3.74-3.01
	c0.02,0,0.05,0,0.07,0c1.73-0.04,3.3,1.05,3.89,2.71l8.58,24.34c0.26,0.73,0.28,1.48,0.14,2.19c30.07,2.63,42.07,24.25,46.86,41.72
	l2.23,0.07l29.96-2.7L177.3,15.18c-1.11-1.09-2.59-1.68-4.18-1.66c-1.62,0.08-3.05,0.65-4.13,1.78L32.92,157.55z"/>
<path class="st5" d="M225.98,219.37c0.21,3.95,2.36,10.68,5.88,18.85l2.52-18.24C231.05,219.96,228.18,219.69,225.98,219.37z"/>
<path class="st0" d="M179.48,178.35c-4.41,0.15-10.89-0.11-16.82-2.38c1.46,3.04,3.24,6.37,5.26,9.63
	c6.45,10.42,13.17,13.76,15.65,13.85l-0.91,4.25l0.74,59.5c1.63-0.13,3.34-0.22,5.16-0.26c6.8-0.14,12.94,0.85,18.11,2.88
	c2.44-0.99,4.86-1.21,6.2-1.33l20.48-1.7c-2-3.64-4.14-7.7-6.22-11.93c-6.9-14.02-14.13-31.21-8.78-39.67
	c1.14-1.81,3.35-2.64,5.41-2.04c1.36,0.39,33.99,9.23,56.73-25.48c0.04-0.06,0.08-0.12,0.12-0.18l1.38-1.91l-3.36-1.77
	c-1.62-0.85-2.62-2.55-2.57-4.38c0.06-2.15,0.82-52.5-43.45-54.71l-17.78,1.35c-2.17,0.4-4.39,0.87-6.59,1.42
	c-1.17,0.29-2.41,0.13-3.46-0.45c-0.03-0.02-0.31-0.17-0.76-0.4c-0.9-0.45-1.64-1.18-2.1-2.08l-12.24-23.65
	c-7.04,14.78-7.87,32.38-7.92,33.75l0.31,24.79l0.58-0.81c-1.94,2.28,1.8,9.57-2.23,10.47c-1.69,0.38-3.43-0.17-5.03-0.71
	c1.63,2.59,3.84,4.08,5.79,4.93c2.03,0.89,3.16,3.02,2.75,5.19C183.51,176.69,181.69,178.26,179.48,178.35z"/>
<path class="st3" d="M179.48,178.35c-4.41,0.15-10.89-0.11-16.82-2.38c1.46,3.04,3.24,6.37,5.26,9.63
	c6.45,10.42,13.17,13.76,15.65,13.85l-0.91,4.25l0.74,59.5c1.63-0.13,3.34-0.22,5.16-0.26c2.06-0.04,4.06,0.03,6,0.19l1.38-58.04
	c0.01-0.43-0.15-0.86-0.44-1.18l-11.97-13.17c-1.11-1.22,0.01-3.14,1.62-2.79l6.22,1.38c1.3,0.29,2.41-0.97,1.96-2.22l-6.36-17.8
	c-0.33-0.92,0.21-1.93,1.16-2.17l9.57-2.39c0.83-0.21,1.38-1.01,1.27-1.86l-4.18-32.05c-0.18-1.37,1.26-2.36,2.48-1.71l16.46,8.86
	c0.77,0.42,1.75,0.18,2.21-0.57c7.89-12.77,24.63-12.98,37.33-10.9c-5.47-3.23-12.25-5.39-20.66-5.81l-17.78,1.35
	c-2.17,0.4-4.39,0.87-6.59,1.42c-1.17,0.29-2.41,0.13-3.46-0.45c-0.03-0.02-0.31-0.17-0.76-0.4c-0.9-0.45-1.64-1.18-2.1-2.08
	l-12.24-23.65c-7.04,14.78-7.87,32.38-7.92,33.75l0.31,24.79l0.58-0.81c-1.94,2.28,1.8,9.57-2.23,10.47c-1.37,0.31-2.78,0-4.12-0.41
	c0.01,0.34,0.02,0.67,0.03,1c1.48,1.8,3.25,2.94,4.84,3.64c2.03,0.89,3.16,3.02,2.75,5.19
	C183.51,176.69,181.69,178.26,179.48,178.35z"/>
<path class="st1" d="M112.9,238.43l-16.3,0.54l4.99,20.52l2.15,8.86c6.07,1.75,11.34,4.39,15.64,7.85l0.05,0
	c1.02-1.34,2.12-2.59,3.29-3.77L112.9,238.43z"/>
<path class="st5" d="M112.9,238.43l-6.45,0.21l13.25,37.23c0.94-1.21,1.95-2.36,3.02-3.43L112.9,238.43z"/>
<g>
</g>
<g>
</g>
<g>
</g>
<g>
</g>
<g>
</g>
<g>
</g>
<g>
</g>
<g>
</g>
<g>
</g>
<g>
</g>
<g>
</g>
<g>
</g>
<g>
</g>
<g>
</g>
<g>
</g>
</svg>
